<mxfile host="65bd71144e">
    <diagram id="7yz7GEEtm6BQyHgpbc-E" name="Page-1">
        <mxGraphModel dx="945" dy="652" grid="1" gridSize="10" guides="1" tooltips="1" connect="1" arrows="1" fold="1" page="1" pageScale="1" pageWidth="827" pageHeight="1169" math="0" shadow="0">
            <root>
                <mxCell id="0"/>
                <mxCell id="1" parent="0"/>
                <mxCell id="3" value="" style="swimlane;whiteSpace=wrap;html=1;startSize=280;" vertex="1" collapsed="1" parent="1">
                    <mxGeometry x="80" y="160" width="420" height="280" as="geometry">
                        <mxRectangle x="310" y="230" width="400" height="270" as="alternateBounds"/>
                    </mxGeometry>
                </mxCell>
            </root>
        </mxGraphModel>
    </diagram>
</mxfile>